<svg width="186" height="40" viewBox="0 0 186 40" fill="none" xmlns="http://www.w3.org/2000/svg">
<g clip-path="url(#clip0_1_1749)">
<path d="M39.7288 27.5086V23.3015H46.625V19.8968H39.7288V15.9066H47.2972V12.4585H36.1072V30.935H47.4274V27.4869H39.7288V27.5086Z" fill="black"/>
<path d="M49.3356 17.9669V30.9352H52.6753V17.9669H49.3356ZM51.0055 11.8081C49.8778 11.8081 48.9236 12.7622 48.9236 13.89C48.9236 15.0176 49.8778 15.9718 51.0055 15.9718C52.1332 15.9718 53.0874 15.0176 53.0874 13.89C53.0874 12.7622 52.1332 11.8081 51.0055 11.8081Z" fill="black"/>
<path d="M65.3835 17.9672V20.0924L64.6678 19.2033C63.8004 18.119 62.5426 17.5552 60.9595 17.5552C57.3813 17.5552 54.5837 20.461 54.5837 24.1477C54.5837 27.8344 57.3813 30.7402 60.9595 30.7402C62.5426 30.7402 63.8004 30.1981 64.6678 29.0922L65.3835 28.203V30.5885C65.3835 32.7138 64.104 33.9282 61.8703 33.9282C59.9837 33.9282 59.1162 33.1474 58.5957 32.345L55.7549 33.9715C56.9476 35.7714 59.0511 36.769 61.7402 36.769C64.9063 36.769 68.6147 35.1426 68.6147 30.5885V17.9672H65.3835ZM61.6534 27.7693C59.4631 27.7693 57.9235 26.2946 57.9235 24.1694C57.9235 22.0442 59.4631 20.5695 61.6534 20.5695C63.8437 20.5695 65.3835 22.0442 65.3835 24.1694C65.3835 26.2946 63.8437 27.7693 61.6534 27.7693Z" fill="black"/>
<path d="M78.8505 17.5764C77.2674 17.5764 75.9445 18.1403 75.2289 19.0944L74.5132 20.092V12.4585H71.1736V30.935H74.5132V23.822C74.5132 21.8052 75.6193 20.5908 77.4843 20.5908C79.1757 20.5908 80.2818 21.7401 80.2818 23.4967V30.9567H83.6214V22.8895C83.6214 19.2245 81.236 17.5764 78.8505 17.5764Z" fill="black"/>
<path d="M93.2933 21.1333V17.9671H90.4524V14.2588L87.113 15.2564V17.9671H84.901V21.1333H87.113V26.4031C87.113 28.203 87.4816 29.374 88.2406 30.0679C89.1733 30.892 90.7777 31.1957 93.2719 30.9788V28.0078C92.1226 28.0511 91.3422 27.9645 90.8648 27.5307C90.583 27.2705 90.431 26.8801 90.431 26.4031V21.1333H93.2933Z" fill="black"/>
<path d="M110.295 12.4585L104.83 21.3932L99.3653 12.4585H95.5707V30.935H99.1698V18.7258L104.787 27.9206H104.83L110.447 18.7258V30.9567H114.047V12.4585H110.295Z" fill="black"/>
<path d="M129.639 24.4511C129.639 20.5259 126.798 17.5767 123.047 17.5767C119.035 17.5767 116.108 20.4608 116.108 24.4511C116.108 28.5064 119.078 31.3256 123.35 31.3256C125.671 31.3256 127.492 30.5449 128.772 29.0052L126.126 27.4871C125.454 28.0943 124.456 28.4414 123.415 28.4414C121.507 28.4414 120.271 27.704 119.729 26.2511L119.533 25.7089H129.553C129.618 25.3185 129.639 24.8848 129.639 24.4511ZM119.491 23.4319L119.62 22.9331C120.054 21.35 121.268 20.4608 123.004 20.4608C124.673 20.4608 125.866 21.35 126.3 22.9331L126.43 23.4319H119.491Z" fill="black"/>
<path d="M141.415 12.4585V19.9402L140.721 19.1378C139.832 18.1186 138.552 17.5981 136.925 17.5981C133.456 17.5981 130.745 20.6125 130.745 24.4726C130.745 28.3327 133.456 31.3471 136.925 31.3471C138.552 31.3471 139.832 30.8266 140.721 29.8074L141.415 29.005V30.9567H144.755V12.4585H141.415ZM137.728 28.2243C135.559 28.2243 134.042 26.6845 134.042 24.4726C134.042 22.2606 135.559 20.7209 137.728 20.7209C139.897 20.7209 141.415 22.2606 141.415 24.4726C141.415 26.6845 139.897 28.2243 137.728 28.2243Z" fill="black"/>
<path d="M147.335 17.9669V30.9352H150.675V17.9669H147.335ZM149.005 11.8081C147.877 11.8081 146.924 12.7622 146.924 13.89C146.924 15.0176 147.877 15.9718 149.005 15.9718C150.132 15.9718 151.087 15.0176 151.087 13.89C151.087 12.7622 150.132 11.8081 149.005 11.8081Z" fill="black"/>
<path d="M162.234 26.6633C161.648 27.5307 160.607 28.0512 159.414 28.0512C157.376 28.0512 155.901 26.5332 155.901 24.4514C155.901 22.3695 157.376 20.8514 159.414 20.8514C160.607 20.8514 161.648 21.3719 162.234 22.2394L165.14 20.5478C163.947 18.7045 161.8 17.5552 159.458 17.5552C155.532 17.5552 152.562 20.5044 152.562 24.4297C152.562 28.3548 155.532 31.3042 159.458 31.3042C161.8 31.3042 163.947 30.1547 165.14 28.2898L162.234 26.6633Z" fill="black"/>
<path d="M176.221 17.967V19.9187L175.527 19.1163C174.638 18.0971 173.358 17.5767 171.732 17.5767C168.262 17.5767 165.552 20.591 165.552 24.4511C165.552 28.3112 168.262 31.3256 171.732 31.3256C173.358 31.3256 174.638 30.8051 175.527 29.7859L176.221 28.9835V30.9352H179.561V17.967H176.221ZM172.556 28.2245C170.388 28.2245 168.869 26.6847 168.869 24.4728C168.869 22.2608 170.388 20.7211 172.556 20.7211C174.724 20.7211 176.243 22.2608 176.243 24.4728C176.221 26.6847 174.724 28.2245 172.556 28.2245Z" fill="black"/>
<path d="M182.164 11.6348V30.9571H185.503V11.6348H182.164Z" fill="black"/>
<path d="M14.0527 20.938L7.9806 14.8658C4.57588 11.4611 4.57588 5.90946 7.9806 2.50475C11.3202 -0.834915 16.7851 -0.834915 20.1248 2.50475L20.2549 2.63486C21.8597 4.23963 22.7706 6.40824 22.7706 8.68528C22.7706 10.9623 21.8597 13.1092 20.2332 14.7357L14.0527 20.938ZM14.0527 3.39387C12.7298 3.39387 11.3853 3.89266 10.3878 4.9119C8.30589 6.99377 8.30589 10.3768 10.3878 12.4587L14.0527 16.1236L17.8478 12.3285C18.8236 11.3527 19.3658 10.0515 19.3658 8.68528C19.3658 7.31906 18.8236 6.01789 17.8478 5.04202L17.7177 4.9119C16.6984 3.89266 15.3755 3.39387 14.0527 3.39387Z" fill="#6D09F9"/>
<path d="M14.0526 39.9999C10.4744 39.9999 6.87449 38.6337 4.16373 35.9012C1.47466 33.2338 0 29.699 0 25.9039C0 22.1306 1.47466 18.574 4.14204 15.885L14.0309 5.99609L16.438 8.40325L14.0526 10.8104L6.5492 18.3138C2.36379 22.4992 2.36379 29.3303 6.5492 33.5157C10.6696 37.6361 17.3923 37.6361 21.5343 33.5157L21.5777 33.4723C25.7414 29.3086 25.7414 22.5209 21.5777 18.3571L17.891 14.6706L20.2982 12.2634L23.9848 15.95C29.4714 21.4366 29.4714 30.393 23.9848 35.8795L23.9414 35.9229C21.209 38.6554 17.6308 39.9999 14.0526 39.9999Z" fill="#6D09F9"/>
<path d="M14.0526 32.8437C12.2093 32.8437 10.4744 32.128 9.17326 30.8269C6.46251 28.1161 6.46251 23.6922 9.17326 20.9814L11.5805 23.3886C10.1925 24.7765 10.1925 27.0318 11.5805 28.4198C12.231 29.0703 13.1201 29.439 14.0526 29.439C14.9852 29.439 15.8526 29.0703 16.5249 28.4198C17.9128 27.0318 17.9128 24.7765 16.5466 23.4102L18.9537 21.0031C21.6645 23.7139 21.6645 28.0944 18.9537 30.8052C17.6092 32.128 15.8742 32.8437 14.0526 32.8437Z" fill="#6D09F9"/>
<path d="M15.2391 17.3125L12.8315 19.72L16.5118 23.4001L18.9193 20.9927L15.2391 17.3125Z" fill="#6D09F9"/>
<path d="M12.8337 17.3315L9.16876 20.9964L11.5763 23.4039L15.2411 19.739L12.8337 17.3315Z" fill="#6D09F9"/>
</g>
<defs>
<clipPath id="clip0_1_1749">
<rect width="185.778" height="40" fill="white"/>
</clipPath>
</defs>
</svg>
